<svg xmlns="http://www.w3.org/2000/svg" width="260" height="120" viewBox="0 0 260 120" role="img" aria-label="Fintech Customer Support icon">
  <rect width="260" height="120" rx="18" fill="#143258"/>

  <!-- credit card -->
  <rect x="24" y="34" width="78" height="50" rx="10" fill="#ffffff"/>
  <rect x="24" y="44" width="78" height="10" fill="#f4b41a"/>
  <rect x="36" y="62" width="20" height="8" rx="3" fill="#143258"/>
  <rect x="62" y="62" width="26" height="6" rx="3" fill="#143258" opacity=".9"/>
  <rect x="62" y="72" width="18" height="6" rx="3" fill="#143258" opacity=".9"/>

  <!-- chat bubbles -->
  <path d="M118 38h34c6 0 10 4 10 10v14c0 6-4 10-10 10h-12l-10 8v-8h-12c-6 0-10-4-10-10V48c0-6 4-10 10-10z" fill="#ffffff"/>
  <path d="M150 30h28c5 0 8 3 8 8v11c0 5-3 8-8 8h-8l-8 6v-6h-12c-4 0-7-3-7-7v-4" fill="#f4b41a"/>
  <circle cx="126" cy="55" r="3" fill="#143258"/>
  <circle cx="136" cy="55" r="3" fill="#143258"/>
  <circle cx="146" cy="55" r="3" fill="#143258"/>

  <!-- support headset -->
  <circle cx="210" cy="58" r="22" fill="#ffffff"/>
  <path d="M196 58v-3c0-8 6-14 14-14s14 6 14 14v3" fill="none" stroke="#f4b41a" stroke-width="5" stroke-linecap="round"/>
  <rect x="192" y="57" width="8" height="16" rx="4" fill="#f4b41a"/>
  <rect x="220" y="57" width="8" height="16" rx="4" fill="#f4b41a"/>
  <path d="M210 58v8c0 4-3 7-7 7h-4" fill="none" stroke="#143258" stroke-width="3.5" stroke-linecap="round" stroke-linejoin="round"/>
  <rect x="194" y="71" width="10" height="6" rx="3" fill="#143258"/>
</svg>