<svg xmlns="http://www.w3.org/2000/svg" width="260" height="120" viewBox="0 0 260 120" role="img" aria-label="Local Services Locksmith Booking icon">
  <rect width="260" height="120" rx="18" fill="#143258"/>

  <!-- key -->
  <circle cx="50" cy="54" r="16" fill="none" stroke="#ffffff" stroke-width="6"/>
  <circle cx="50" cy="54" r="5" fill="#ffffff"/>
  <path d="M66 54H102V63H94V70H86V63H78V54Z" fill="#f4b41a"/>

  <!-- lock -->
  <rect x="112" y="42" width="48" height="42" rx="8" fill="#ffffff"/>
  <path d="M124 42V35C124 25 131 18 136 18C145 18 152 25 152 35V42" fill="none" stroke="#ffffff" stroke-width="6" stroke-linecap="round"/>
  <circle cx="136" cy="60" r="5" fill="#143258"/>
  <rect x="133" y="60" width="6" height="12" rx="3" fill="#143258"/>

  <!-- service badge -->
  <circle cx="202" cy="58" r="24" fill="#ffffff"/>
  <circle cx="202" cy="58" r="18" fill="#f4b41a"/>
  <path d="M202 47v11M202 58l8 5" fill="none" stroke="#143258" stroke-width="4" stroke-linecap="round" stroke-linejoin="round"/>
  <path d="M186 78l7-6M218 78l-7-6" fill="none" stroke="#ffffff" stroke-width="4" stroke-linecap="round"/>
</svg>