<svg xmlns="http://www.w3.org/2000/svg" width="260" height="120" viewBox="0 0 260 120" role="img" aria-label="Nonprofit Donation Funding icon">
  <rect width="260" height="120" rx="18" fill="#143258"/>

  <!-- heart -->
  <path d="M46 38c0-8 6-14 14-14 5 0 9 2 12 6 3-4 7-6 12-6 8 0 14 6 14 14 0 16-26 31-26 31S46 54 46 38z" fill="#f4b41a"/>

  <!-- donation box -->
  <rect x="108" y="42" width="64" height="42" rx="8" fill="#ffffff"/>
  <rect x="128" y="34" width="24" height="10" rx="4" fill="#ffffff"/>
  <rect x="126" y="52" width="28" height="6" rx="3" fill="#f4b41a"/>
  <path d="M140 42v42" fill="none" stroke="#143258" stroke-width="3" stroke-linecap="round" opacity=".18"/>
  <path d="M120 84l8-10h24l8 10" fill="#f4b41a"/>

  <!-- coins -->
  <ellipse cx="204" cy="74" rx="18" ry="7" fill="#f4b41a"/>
  <path d="M186 66c0 4 8 7 18 7s18-3 18-7M186 58c0 4 8 7 18 7s18-3 18-7" fill="none" stroke="#f4b41a" stroke-width="6" stroke-linecap="round"/>
  <ellipse cx="204" cy="58" rx="18" ry="7" fill="#ffffff"/>
  <path d="M198 55c1-2 3-3 6-3 3 0 6 1 6 4 0 5-9 3-9 7 0 2 2 3 5 3 2 0 4-1 5-2" fill="none" stroke="#143258" stroke-width="2.5" stroke-linecap="round" stroke-linejoin="round"/>
  <path d="M204 50v19" fill="none" stroke="#143258" stroke-width="2.5" stroke-linecap="round"/>
</svg>